# This file is brought to you by Roblox Corporation
# Generated by Roblox Studio

mtllib steamhappy.mtl

g Happy1

v 139.573 3.2 3.78038 
v 140.203 3.2 4.55753 
v 139.573 3.93391e-06 3.78038 
v 140.203 3.93391e-06 4.55753 
v 138.027 3.2 6.31962 
v 140.203 3.2 4.55753 
v 137.397 3.2 5.54248 
v 139.573 3.2 3.78038 
v 140.203 3.2 4.55753 
v 138.027 3.2 6.31962 
v 140.203 3.93391e-06 4.55753 
v 138.027 3.93391e-06 6.31962 
v 138.027 3.2 6.31962 
v 137.397 3.2 5.54248 
v 138.027 3.93391e-06 6.31962 
v 137.397 3.93391e-06 5.54248 
v 137.397 3.93391e-06 5.54248 
v 139.573 3.93391e-06 3.78038 
v 138.027 3.93391e-06 6.31962 
v 140.203 3.93391e-06 4.55753 
v 137.397 3.2 5.54248 
v 139.573 3.2 3.78038 
v 137.397 3.93391e-06 5.54248 
v 139.573 3.93391e-06 3.78038 

vn 0.779528 0 -0.629921 
vn 0.779528 0 -0.629921 
vn 0.779528 0 -0.629921 
vn 0.779528 0 -0.629921 
vn 0 1 0 
vn 0 1 0 
vn 0 1 0 
vn 0 1 0 
vn 0.629921 0 0.779528 
vn 0.629921 0 0.779528 
vn 0.629921 0 0.779528 
vn 0.629921 0 0.779528 
vn -0.779528 0 0.629921 
vn -0.779528 0 0.629921 
vn -0.779528 0 0.629921 
vn -0.779528 0 0.629921 
vn 0 -1 0 
vn 0 -1 0 
vn 0 -1 0 
vn 0 -1 0 
vn -0.629921 0 -0.779528 
vn -0.629921 0 -0.779528 
vn -0.629921 0 -0.779528 
vn -0.629921 0 -0.779528 

vt 0.125 -2.75 
vt 0 -2.75 
vt 0.125 -3.15 
vt 0 -3.15 
vt 0.35 -2.75 
vt 0 -2.75 
vt 0.35 -2.875 
vt 0 -2.875 
vt 0.35 -2.75 
vt 0 -2.75 
vt 0.35 -3.15 
vt 0 -3.15 
vt 0.125 -2.75 
vt 0 -2.75 
vt 0.125 -3.15 
vt 0 -3.15 
vt 0.35 -2.75 
vt 0 -2.75 
vt 0.35 -2.875 
vt 0 -2.875 
vt 0.35 -2.75 
vt 0 -2.75 
vt 0.35 -3.15 
vt 0 -3.15 

usemtl Happy1Mtl

f 1/1/1 2/2/2 3/3/3 
f 3/3/3 2/2/2 4/4/4 
f 5/5/5 6/6/6 7/7/7 
f 7/7/7 6/6/6 8/8/8 
f 9/9/9 10/10/10 11/11/11 
f 11/11/11 10/10/10 12/12/12 
f 13/13/13 14/14/14 15/15/15 
f 15/15/15 14/14/14 16/16/16 
f 17/17/17 18/18/18 19/19/19 
f 19/19/19 18/18/18 20/20/20 
f 21/21/21 22/22/22 23/23/23 
f 23/23/23 22/22/22 24/24/24 

g Happy2

v 137.385 3.2 5.52689 
v 139.561 3.2 3.76479 
v 137.385 3.93391e-06 5.52689 
v 139.561 3.93391e-06 3.76479 

vn -0.629921 0 -0.779528 
vn -0.629921 0 -0.779528 
vn -0.629921 0 -0.779528 
vn -0.629921 0 -0.779528 

vt 1 1 
vt 0 1 
vt 1 0 
vt 0 0 

usemtl Happy2Mtl

f 25/25/25 26/26/26 27/27/27 
f 27/27/27 26/26/26 28/28/28 

